# xmcd CD database file
#
# Track frame offsets:
#	150
#	16692
#	32201
#	61975
#
# Disc length: 1190 seconds
#
# Revision: 2
# Processed by: cddbd v1.4PL0 Copyright (c) Steve Scherf et al.
# Submitted via: CDex 1.50beta9
#
DISCID=2704a404
DTITLE=Infextious - Let Me Fly (Single)
DYEAR=2003
DGENRE=Trance
TTITLE0=Let Me Fly (Radio Edit)
TTITLE1=Let Me Fly (Muse Zikka's Pink Pocket Radio Edit)
TTITLE2=Let Me Fly (Infextious Extended Mix)
TTITLE3=Let Me Fly (Styles And Breeze Remix)
EXTD=YEAR: 2003
EXTT0=
EXTT1=
EXTT2=
EXTT3=
PLAYORDER=
